<mxfile host="app.diagrams.net" modified="2021-09-12T11:35:51.210Z" agent="5.0 (Windows)" etag="4Jc4NPJgMnDiGyrNQxOp" version="15.1.4" type="github">
  <diagram id="prtHgNgQTEPvFCAcTncT" name="Page-1">
    <mxGraphModel dx="489" dy="1948" grid="1" gridSize="10" guides="1" tooltips="1" connect="1" arrows="1" fold="1" page="1" pageScale="1" pageWidth="827" pageHeight="1169" math="0" shadow="0">
      <root>
        <mxCell id="0" />
        <mxCell id="1" parent="0" />
        <mxCell id="dNxyNK7c78bLwvsdeMH5-19" value="&lt;div&gt;FAF Client Application&lt;/div&gt;" style="swimlane;html=1;childLayout=stackLayout;resizeParent=1;resizeParentMax=0;horizontal=0;startSize=20;horizontalStack=0;" parent="1" vertex="1">
          <mxGeometry x="52" y="40" width="740" height="530" as="geometry" />
        </mxCell>
        <mxCell id="dNxyNK7c78bLwvsdeMH5-27" value="" style="edgeStyle=orthogonalEdgeStyle;rounded=0;orthogonalLoop=1;jettySize=auto;html=1;dashed=1;endArrow=none;endFill=0;" parent="dNxyNK7c78bLwvsdeMH5-19" source="dNxyNK7c78bLwvsdeMH5-24" target="dNxyNK7c78bLwvsdeMH5-26" edge="1">
          <mxGeometry relative="1" as="geometry" />
        </mxCell>
        <mxCell id="dNxyNK7c78bLwvsdeMH5-31" style="edgeStyle=orthogonalEdgeStyle;rounded=0;orthogonalLoop=1;jettySize=auto;html=1;endArrow=classic;endFill=1;" parent="dNxyNK7c78bLwvsdeMH5-19" target="dNxyNK7c78bLwvsdeMH5-30" edge="1">
          <mxGeometry relative="1" as="geometry">
            <mxPoint x="300" y="160" as="sourcePoint" />
          </mxGeometry>
        </mxCell>
        <mxCell id="dNxyNK7c78bLwvsdeMH5-35" style="edgeStyle=orthogonalEdgeStyle;rounded=0;orthogonalLoop=1;jettySize=auto;html=1;endArrow=classic;endFill=1;" parent="dNxyNK7c78bLwvsdeMH5-19" edge="1">
          <mxGeometry relative="1" as="geometry">
            <mxPoint x="300" y="200" as="sourcePoint" />
            <mxPoint x="406" y="350" as="targetPoint" />
          </mxGeometry>
        </mxCell>
        <mxCell id="dNxyNK7c78bLwvsdeMH5-38" style="edgeStyle=orthogonalEdgeStyle;rounded=0;orthogonalLoop=1;jettySize=auto;html=1;endArrow=classic;endFill=1;" parent="dNxyNK7c78bLwvsdeMH5-19" source="dNxyNK7c78bLwvsdeMH5-26" edge="1">
          <mxGeometry relative="1" as="geometry">
            <Array as="points">
              <mxPoint x="180" y="340" />
              <mxPoint x="400" y="340" />
            </Array>
            <mxPoint x="400.0344827586207" y="309.9655172413792" as="targetPoint" />
          </mxGeometry>
        </mxCell>
        <mxCell id="dNxyNK7c78bLwvsdeMH5-20" value="Communication Layer" style="swimlane;html=1;startSize=20;horizontal=0;swimlaneFillColor=#66B2FF;" parent="dNxyNK7c78bLwvsdeMH5-19" vertex="1">
          <mxGeometry x="20" width="720" height="150" as="geometry" />
        </mxCell>
        <mxCell id="dNxyNK7c78bLwvsdeMH5-24" value="FafApiAccessor" style="rounded=0;whiteSpace=wrap;html=1;fontFamily=Helvetica;fontSize=12;fontColor=#000000;align=center;" parent="dNxyNK7c78bLwvsdeMH5-20" vertex="1">
          <mxGeometry x="330" y="40" width="120" height="60" as="geometry" />
        </mxCell>
        <mxCell id="dNxyNK7c78bLwvsdeMH5-30" value="FafServerAccessor" style="rounded=0;whiteSpace=wrap;html=1;fontFamily=Helvetica;fontSize=12;fontColor=#000000;align=center;" parent="dNxyNK7c78bLwvsdeMH5-20" vertex="1">
          <mxGeometry x="460" y="40" width="120" height="60" as="geometry" />
        </mxCell>
        <mxCell id="G9QZ7itRbb39A--PqmDq-13" value="&lt;div align=&quot;left&quot;&gt;Accessors know how to talk to a specific &lt;br&gt;server and what functions it offers.&lt;/div&gt;&lt;div align=&quot;left&quot;&gt;&lt;br&gt;&lt;/div&gt;&lt;div align=&quot;left&quot;&gt;For instance, FafApiAccessor accesses the FAF REST API over HTTP whereas FafServerAccessor accesses the FAF server over a proprietary protocol.&lt;br&gt;&lt;/div&gt;" style="shape=note;whiteSpace=wrap;html=1;backgroundOutline=1;darkOpacity=0.05;fillColor=#FFFFFF;align=left;" vertex="1" parent="dNxyNK7c78bLwvsdeMH5-20">
          <mxGeometry x="30" y="10" width="280" height="130" as="geometry" />
        </mxCell>
        <mxCell id="dNxyNK7c78bLwvsdeMH5-21" value="&lt;div&gt;Service Layer&lt;/div&gt;" style="swimlane;html=1;startSize=20;horizontal=0;swimlaneFillColor=#FF9999;" parent="dNxyNK7c78bLwvsdeMH5-19" vertex="1">
          <mxGeometry x="20" y="150" width="720" height="190" as="geometry" />
        </mxCell>
        <mxCell id="dNxyNK7c78bLwvsdeMH5-26" value="GameService" style="rounded=0;whiteSpace=wrap;html=1;fontFamily=Helvetica;fontSize=12;fontColor=#000000;align=center;" parent="dNxyNK7c78bLwvsdeMH5-21" vertex="1">
          <mxGeometry x="335" y="80" width="110" height="60" as="geometry" />
        </mxCell>
        <mxCell id="G9QZ7itRbb39A--PqmDq-4" value="PlayerService" style="rounded=0;whiteSpace=wrap;html=1;fontFamily=Helvetica;fontSize=12;fontColor=#000000;align=center;" vertex="1" parent="dNxyNK7c78bLwvsdeMH5-21">
          <mxGeometry x="465" y="80" width="110" height="60" as="geometry" />
        </mxCell>
        <mxCell id="G9QZ7itRbb39A--PqmDq-5" value="PreferenceService" style="rounded=0;whiteSpace=wrap;html=1;fontFamily=Helvetica;fontSize=12;fontColor=#000000;align=center;" vertex="1" parent="dNxyNK7c78bLwvsdeMH5-21">
          <mxGeometry x="593" y="80" width="110" height="60" as="geometry" />
        </mxCell>
        <mxCell id="G9QZ7itRbb39A--PqmDq-14" value="&lt;div align=&quot;left&quot;&gt;Services provide functionality for exactly one domain. For every domain, there is a service.&lt;/div&gt;&lt;div align=&quot;left&quot;&gt;&lt;br&gt;&lt;/div&gt;&lt;div align=&quot;left&quot;&gt;For the domain &quot;maps&quot; there is a MapService&lt;br&gt;For the domain &quot;players&quot; there is a Player Service&lt;br&gt;For the domain &quot;games&quot; there is a Game Service&lt;br&gt;and so on&lt;/div&gt;&lt;div align=&quot;left&quot;&gt;&lt;br&gt;&lt;/div&gt;&lt;div align=&quot;left&quot;&gt;Services may depend on other services, however, cyclic dependency should be avoided (If MapService depends on Player Service, Player Service should not depend on MapService)&lt;br&gt;&lt;/div&gt;" style="shape=note;whiteSpace=wrap;html=1;backgroundOutline=1;darkOpacity=0.05;fillColor=#FFFFFF;align=left;" vertex="1" parent="dNxyNK7c78bLwvsdeMH5-21">
          <mxGeometry x="30" y="5" width="280" height="180" as="geometry" />
        </mxCell>
        <mxCell id="dNxyNK7c78bLwvsdeMH5-22" value="&lt;div&gt;UI Layer&lt;/div&gt;" style="swimlane;html=1;startSize=20;horizontal=0;swimlaneFillColor=#66FF66;fillColor=#FFFFFF;" parent="dNxyNK7c78bLwvsdeMH5-19" vertex="1">
          <mxGeometry x="20" y="340" width="720" height="190" as="geometry" />
        </mxCell>
        <mxCell id="G9QZ7itRbb39A--PqmDq-7" value="ChatTabController" style="rounded=0;whiteSpace=wrap;html=1;fontFamily=Helvetica;fontSize=12;fontColor=#000000;align=center;" vertex="1" parent="dNxyNK7c78bLwvsdeMH5-22">
          <mxGeometry x="593.5" y="35" width="110" height="60" as="geometry" />
        </mxCell>
        <mxCell id="G9QZ7itRbb39A--PqmDq-20" style="edgeStyle=orthogonalEdgeStyle;rounded=0;orthogonalLoop=1;jettySize=auto;html=1;exitX=0.5;exitY=0;exitDx=0;exitDy=0;entryX=0.5;entryY=1;entryDx=0;entryDy=0;" edge="1" parent="dNxyNK7c78bLwvsdeMH5-22" source="G9QZ7itRbb39A--PqmDq-9" target="G9QZ7itRbb39A--PqmDq-19">
          <mxGeometry relative="1" as="geometry" />
        </mxCell>
        <mxCell id="G9QZ7itRbb39A--PqmDq-9" value="games.fxml" style="rounded=0;whiteSpace=wrap;html=1;fontFamily=Helvetica;fontSize=12;fontColor=#000000;align=center;" vertex="1" parent="dNxyNK7c78bLwvsdeMH5-22">
          <mxGeometry x="332.5" y="120" width="110" height="55" as="geometry" />
        </mxCell>
        <mxCell id="G9QZ7itRbb39A--PqmDq-21" style="edgeStyle=orthogonalEdgeStyle;rounded=0;orthogonalLoop=1;jettySize=auto;html=1;exitX=0.5;exitY=0;exitDx=0;exitDy=0;entryX=0.5;entryY=1;entryDx=0;entryDy=0;" edge="1" parent="dNxyNK7c78bLwvsdeMH5-22" source="G9QZ7itRbb39A--PqmDq-10" target="G9QZ7itRbb39A--PqmDq-18">
          <mxGeometry relative="1" as="geometry">
            <Array as="points">
              <mxPoint x="522" y="120" />
              <mxPoint x="521" y="120" />
            </Array>
          </mxGeometry>
        </mxCell>
        <mxCell id="G9QZ7itRbb39A--PqmDq-10" value="chat.fxml" style="rounded=0;whiteSpace=wrap;html=1;fontFamily=Helvetica;fontSize=12;fontColor=#000000;align=center;" vertex="1" parent="dNxyNK7c78bLwvsdeMH5-22">
          <mxGeometry x="466.5" y="120" width="110" height="55" as="geometry" />
        </mxCell>
        <mxCell id="G9QZ7itRbb39A--PqmDq-22" style="edgeStyle=orthogonalEdgeStyle;rounded=0;orthogonalLoop=1;jettySize=auto;html=1;exitX=0.5;exitY=0;exitDx=0;exitDy=0;entryX=0.5;entryY=1;entryDx=0;entryDy=0;" edge="1" parent="dNxyNK7c78bLwvsdeMH5-22" source="G9QZ7itRbb39A--PqmDq-11" target="G9QZ7itRbb39A--PqmDq-7">
          <mxGeometry relative="1" as="geometry" />
        </mxCell>
        <mxCell id="G9QZ7itRbb39A--PqmDq-11" value="chat_tab.fxml" style="rounded=0;whiteSpace=wrap;html=1;fontFamily=Helvetica;fontSize=12;fontColor=#000000;align=center;" vertex="1" parent="dNxyNK7c78bLwvsdeMH5-22">
          <mxGeometry x="593.5" y="120" width="110" height="55" as="geometry" />
        </mxCell>
        <mxCell id="G9QZ7itRbb39A--PqmDq-15" value="&lt;div align=&quot;left&quot;&gt;Controllers (as in MVC) control Ul elements (defined in an FXML file) and call services. Services must never depend on controllers, a controller may depend on more than one&lt;br&gt;service&lt;/div&gt;&lt;div align=&quot;left&quot;&gt;&lt;br&gt;A controller may depend on child controllers, but cyclic dependencies should be avoided. For instance: News Controller depends on NewsItemController&lt;br&gt;&lt;/div&gt;" style="shape=note;whiteSpace=wrap;html=1;backgroundOutline=1;darkOpacity=0.05;fillColor=#FFFFFF;align=left;" vertex="1" parent="dNxyNK7c78bLwvsdeMH5-22">
          <mxGeometry x="30" y="10" width="280" height="165" as="geometry" />
        </mxCell>
        <mxCell id="G9QZ7itRbb39A--PqmDq-18" value="ChatController" style="rounded=0;whiteSpace=wrap;html=1;fontFamily=Helvetica;fontSize=12;fontColor=#000000;align=center;" vertex="1" parent="dNxyNK7c78bLwvsdeMH5-22">
          <mxGeometry x="465.5" y="35" width="110" height="60" as="geometry" />
        </mxCell>
        <mxCell id="G9QZ7itRbb39A--PqmDq-19" value="GamesController" style="rounded=0;whiteSpace=wrap;html=1;fontFamily=Helvetica;fontSize=12;fontColor=#000000;align=center;" vertex="1" parent="dNxyNK7c78bLwvsdeMH5-22">
          <mxGeometry x="334.5" y="35" width="110" height="60" as="geometry" />
        </mxCell>
        <mxCell id="G9QZ7itRbb39A--PqmDq-23" style="edgeStyle=orthogonalEdgeStyle;rounded=1;orthogonalLoop=1;jettySize=auto;html=1;exitX=0.5;exitY=0;exitDx=0;exitDy=0;entryX=0.5;entryY=1;entryDx=0;entryDy=0;" edge="1" parent="dNxyNK7c78bLwvsdeMH5-19" source="G9QZ7itRbb39A--PqmDq-19" target="dNxyNK7c78bLwvsdeMH5-26">
          <mxGeometry relative="1" as="geometry" />
        </mxCell>
        <mxCell id="G9QZ7itRbb39A--PqmDq-24" style="edgeStyle=orthogonalEdgeStyle;orthogonalLoop=1;jettySize=auto;html=1;exitX=0.5;exitY=0;exitDx=0;exitDy=0;entryX=0.5;entryY=1;entryDx=0;entryDy=0;rounded=1;" edge="1" parent="dNxyNK7c78bLwvsdeMH5-19" source="G9QZ7itRbb39A--PqmDq-19" target="G9QZ7itRbb39A--PqmDq-4">
          <mxGeometry relative="1" as="geometry" />
        </mxCell>
        <mxCell id="G9QZ7itRbb39A--PqmDq-30" style="edgeStyle=orthogonalEdgeStyle;rounded=1;orthogonalLoop=1;jettySize=auto;html=1;exitX=0.5;exitY=0;exitDx=0;exitDy=0;entryX=0.5;entryY=1;entryDx=0;entryDy=0;" edge="1" parent="dNxyNK7c78bLwvsdeMH5-19" source="G9QZ7itRbb39A--PqmDq-4" target="dNxyNK7c78bLwvsdeMH5-30">
          <mxGeometry relative="1" as="geometry" />
        </mxCell>
        <mxCell id="G9QZ7itRbb39A--PqmDq-33" style="edgeStyle=orthogonalEdgeStyle;rounded=0;orthogonalLoop=1;jettySize=auto;html=1;exitX=0.5;exitY=0;exitDx=0;exitDy=0;" edge="1" parent="dNxyNK7c78bLwvsdeMH5-19" source="G9QZ7itRbb39A--PqmDq-18" target="G9QZ7itRbb39A--PqmDq-4">
          <mxGeometry relative="1" as="geometry" />
        </mxCell>
        <mxCell id="G9QZ7itRbb39A--PqmDq-34" style="edgeStyle=orthogonalEdgeStyle;rounded=0;orthogonalLoop=1;jettySize=auto;html=1;exitX=0.5;exitY=0;exitDx=0;exitDy=0;entryX=0.5;entryY=1;entryDx=0;entryDy=0;" edge="1" parent="dNxyNK7c78bLwvsdeMH5-19" source="G9QZ7itRbb39A--PqmDq-7" target="G9QZ7itRbb39A--PqmDq-5">
          <mxGeometry relative="1" as="geometry" />
        </mxCell>
        <mxCell id="G9QZ7itRbb39A--PqmDq-35" style="edgeStyle=orthogonalEdgeStyle;rounded=1;orthogonalLoop=1;jettySize=auto;html=1;exitX=0.5;exitY=0;exitDx=0;exitDy=0;" edge="1" parent="dNxyNK7c78bLwvsdeMH5-19" source="G9QZ7itRbb39A--PqmDq-18" target="G9QZ7itRbb39A--PqmDq-5">
          <mxGeometry relative="1" as="geometry" />
        </mxCell>
        <mxCell id="G9QZ7itRbb39A--PqmDq-36" style="edgeStyle=orthogonalEdgeStyle;rounded=1;orthogonalLoop=1;jettySize=auto;html=1;exitX=0.5;exitY=0;exitDx=0;exitDy=0;entryX=0.5;entryY=1;entryDx=0;entryDy=0;" edge="1" parent="dNxyNK7c78bLwvsdeMH5-19" source="dNxyNK7c78bLwvsdeMH5-26" target="dNxyNK7c78bLwvsdeMH5-30">
          <mxGeometry relative="1" as="geometry" />
        </mxCell>
        <mxCell id="G9QZ7itRbb39A--PqmDq-39" style="edgeStyle=orthogonalEdgeStyle;rounded=1;orthogonalLoop=1;jettySize=auto;html=1;exitX=0.5;exitY=0;exitDx=0;exitDy=0;entryX=0.5;entryY=1;entryDx=0;entryDy=0;" edge="1" parent="dNxyNK7c78bLwvsdeMH5-19" source="G9QZ7itRbb39A--PqmDq-4" target="dNxyNK7c78bLwvsdeMH5-24">
          <mxGeometry relative="1" as="geometry" />
        </mxCell>
        <mxCell id="G9QZ7itRbb39A--PqmDq-40" style="edgeStyle=orthogonalEdgeStyle;rounded=1;orthogonalLoop=1;jettySize=auto;html=1;exitX=0.5;exitY=0;exitDx=0;exitDy=0;entryX=0.5;entryY=1;entryDx=0;entryDy=0;" edge="1" parent="dNxyNK7c78bLwvsdeMH5-19" source="G9QZ7itRbb39A--PqmDq-7" target="G9QZ7itRbb39A--PqmDq-4">
          <mxGeometry relative="1" as="geometry" />
        </mxCell>
        <mxCell id="G9QZ7itRbb39A--PqmDq-2" value="FAF Rest API" style="ellipse;shape=cloud;whiteSpace=wrap;html=1;fillColor=#FFFFFF;" vertex="1" parent="1">
          <mxGeometry x="379" y="-60" width="150" height="80" as="geometry" />
        </mxCell>
        <mxCell id="G9QZ7itRbb39A--PqmDq-3" value="FAF Lobby Server" style="ellipse;shape=cloud;whiteSpace=wrap;html=1;fillColor=#FFFFFF;" vertex="1" parent="1">
          <mxGeometry x="510" y="-60" width="150" height="80" as="geometry" />
        </mxCell>
        <mxCell id="G9QZ7itRbb39A--PqmDq-31" style="edgeStyle=orthogonalEdgeStyle;rounded=1;orthogonalLoop=1;jettySize=auto;html=1;exitX=0.5;exitY=0;exitDx=0;exitDy=0;entryX=0.55;entryY=0.95;entryDx=0;entryDy=0;entryPerimeter=0;" edge="1" parent="1" source="dNxyNK7c78bLwvsdeMH5-24" target="G9QZ7itRbb39A--PqmDq-2">
          <mxGeometry relative="1" as="geometry" />
        </mxCell>
        <mxCell id="G9QZ7itRbb39A--PqmDq-32" style="edgeStyle=orthogonalEdgeStyle;rounded=1;orthogonalLoop=1;jettySize=auto;html=1;exitX=0.5;exitY=0;exitDx=0;exitDy=0;entryX=0.55;entryY=0.95;entryDx=0;entryDy=0;entryPerimeter=0;" edge="1" parent="1" source="dNxyNK7c78bLwvsdeMH5-30" target="G9QZ7itRbb39A--PqmDq-3">
          <mxGeometry relative="1" as="geometry" />
        </mxCell>
      </root>
    </mxGraphModel>
  </diagram>
</mxfile>
